<?xml version="1.0" standalone="no"?>
<!DOCTYPE svg PUBLIC "-//W3C//DTD SVG 1.1//EN" "http://www.w3.org/Graphics/SVG/1.1/DTD/svg11.dtd" >
<svg xmlns="http://www.w3.org/2000/svg">
<metadata>
This is a custom SVG webfont generated by Font Squirrel.
Copyright   : Copyright c 2008 by Stefan Gandl All rights reserved
Designer    : Stefan Gandl
Foundry     : Stefan Gandl
Foundry URL : wwwneubauladencom
</metadata>
<defs>
<font id="webfonthM1o79T9" horiz-adv-x="1120" >
<font-face units-per-em="2048" ascent="1638" descent="-410" />
<missing-glyph horiz-adv-x="614" />
<glyph unicode=" "  horiz-adv-x="614" />
<glyph unicode="&#x09;" horiz-adv-x="614" />
<glyph unicode="&#xa0;" horiz-adv-x="614" />
<glyph unicode="!" horiz-adv-x="376" d="M203 471h-29v971h29v-971zM203 0h-29v264h29v-264z" />
<glyph unicode="&#x22;" horiz-adv-x="452" d="M319 975h-28v469h28v-469zM162 975h-29v469h29v-469z" />
<glyph unicode="#" horiz-adv-x="1114" d="M1042 236h-235v-236h-29v236h-442v-236h-29v236h-235v28h235v914h-235v28h235v236h29v-236h442v236h29v-236h235v-28h-235v-914h235v-28zM778 264v914h-442v-914h442z" />
<glyph unicode="$" horiz-adv-x="1114" d="M1042 369q0 -152 -104 -260.5t-252 -108.5h-115v-236h-28v236h-115q-115 0 -208 68.5t-128 177.5l27 10q35 -100 120 -163.5t189 -63.5h258q135 0 231.5 99t96.5 241q0 135 -85 209.5t-214 101.5q-59 14 -175 29.5t-122 17.5q-152 23 -249 112t-97 236q0 152 104.5 259.5 t251.5 107.5h115v235h28v-235h115q115 0 208 -68.5t128 -175.5l-27 -10q-35 100 -119.5 162.5t-189.5 62.5h-258q-135 0 -231.5 -99.5t-96.5 -238.5q0 -141 94.5 -216t213.5 -99q43 -8 157.5 -23.5t149.5 -23.5q145 -33 236 -117t91 -227z" />
<glyph unicode="%" horiz-adv-x="1581" d="M1489 281q0 -117 -82 -199t-197 -82h-18q-117 0 -199 82t-82 199v176q0 115 82 196.5t199 81.5h18q115 0 197 -82t82 -196v-176zM1229 1442l-840 -1442h-35l842 1442h33zM670 987q0 -117 -82 -198.5t-199 -81.5h-16q-117 0 -199 81.5t-82 198.5v176q0 115 82 197t199 82 h16q117 0 199 -82t82 -197v-176zM1460 281v176q0 102 -73.5 176t-176.5 74h-18q-104 0 -177 -74t-73 -176v-176q0 -104 72.5 -178t177.5 -74h18q102 0 176 74t74 178zM641 987v176q0 102 -73.5 176t-178.5 74h-16q-104 0 -178 -73.5t-74 -176.5v-176q0 -104 73.5 -178 t178.5 -74h16q104 0 178 74t74 178z" />
<glyph unicode="&#x26;" horiz-adv-x="1210" d="M1270 0h-45l-275 229q-43 -102 -135 -165.5t-207 -63.5h-116q-154 0 -261.5 107.5t-107.5 261.5q0 117 68.5 212t175.5 134l-119 98q-125 106 -125 262q0 152 107.5 259.5t261.5 107.5q152 0 259 -107.5t107 -259.5q0 -154 -107.5 -261t-258.5 -107q-33 0 -64 -7 l508 -419q12 39 12 88v352h29v-352q0 -55 -16 -109zM829 1075q0 139 -99 238.5t-238 99.5q-141 0 -240.5 -99.5t-99.5 -238.5q0 -147 114 -239l133 -111q51 10 93 10q139 0 238 99.5t99 240.5zM926 250l-533 442q-104 -33 -172.5 -122t-68.5 -201q0 -141 99 -240.5 t241 -99.5h116q109 0 196 61.5t122 159.5z" />
<glyph unicode="'" horiz-adv-x="294" d="M162 975h-29v469h29v-469z" />
<glyph unicode="(" horiz-adv-x="731" d="M659 0q-201 0 -343 143.5t-142 343.5v471q0 201 142.5 343.5t342.5 142.5v-29q-188 0 -322 -134t-134 -323v-471q0 -190 134 -323t322 -133v-31z" />
<glyph unicode=")" horiz-adv-x="731" d="M72 0v31q188 0 322 133t134 323v471q0 188 -134 322.5t-322 134.5v29q201 0 343 -142.5t142 -343.5v-471q0 -201 -142 -344t-343 -143z" />
<glyph unicode="*" horiz-adv-x="520" d="M489 1272l-204 -68l127 -174l-25 -18l-127 176l-127 -176l-24 18l127 174l-205 68l8 26l207 -65v215h28v-215l207 65z" />
<glyph unicode="+" horiz-adv-x="1196" d="M1083 475h-471v-475h-28v475h-471v29h471v467h28v-467h471v-29z" />
<glyph unicode="," horiz-adv-x="407" d="M274 6q0 -74 -38.5 -134t-102.5 -91v33q113 66 113 192v260h28v-260z" />
<glyph unicode="-" horiz-adv-x="710" d="M598 475h-485v29h485v-29z" />
<glyph unicode="." horiz-adv-x="294" d="M162 0h-29v264h29v-264z" />
<glyph unicode="/" horiz-adv-x="573" d="M543 1442l-482 -1442h-30l481 1442h31z" />
<glyph unicode="0" d="M987 426q0 -176 -125 -301t-303 -125q-176 0 -301 125t-125 301v590q0 176 125 301t301 125q178 0 303 -125t125 -301v-590zM958 426v590q0 164 -116.5 280.5t-282.5 116.5q-164 0 -280.5 -116.5t-116.5 -280.5v-590q0 -164 116.5 -280.5t280.5 -116.5q166 0 282.5 116.5 t116.5 280.5z" />
<glyph unicode="1" horiz-adv-x="616" d="M442 0h-30v1413h-412v29h442v-1442z" />
<glyph unicode="2" d="M977 0h-854v29l721 805q100 113 100 241q0 139 -99.5 238.5t-240.5 99.5h-117q-109 0 -195.5 -62.5t-123.5 -162.5l-29 8q39 109 134.5 177.5t213.5 68.5h117q154 0 261.5 -107.5t107.5 -259.5q0 -139 -113 -268l-698 -778h815v-29z" />
<glyph unicode="3" d="M969 369q0 -154 -108.5 -261.5t-260.5 -107.5h-117q-119 0 -214 68.5t-134 177.5l29 8q35 -100 123 -162.5t196 -62.5h117q139 0 238.5 99t99.5 241q0 139 -99.5 238.5t-238.5 99.5h-117v28h117q139 0 238.5 99.5t99.5 240.5q0 139 -99.5 238.5t-238.5 99.5h-117 q-111 0 -197.5 -62.5t-121.5 -162.5l-29 8q39 109 134.5 177.5t213.5 68.5h117q152 0 260.5 -107.5t108.5 -259.5q0 -125 -75 -222t-189 -132q115 -35 189.5 -132t74.5 -220z" />
<glyph unicode="4" d="M946 0h-28v471h-826v29l367 942h30l-366 -942h795v471h28v-971z" />
<glyph unicode="5" d="M993 369q0 -154 -108.5 -261.5t-259.5 -107.5h-117q-119 0 -214 68.5t-134 177.5l28 8q37 -100 124 -162.5t196 -62.5h117q139 0 239.5 99t100.5 241q0 139 -100.5 238.5t-239.5 99.5h-486v735h840v-29h-811v-678h457q152 0 260 -107t108 -259z" />
<glyph unicode="6" d="M997 545v-119q0 -176 -124.5 -301t-303.5 -125q-176 0 -301 125t-125 301v590q0 176 125 301t301 125q127 0 230.5 -67.5t156.5 -178.5l-26 -12q-49 102 -145.5 165.5t-215.5 63.5q-164 0 -280.5 -116.5t-116.5 -280.5v-316q49 121 156.5 196t240.5 75q178 0 303 -125 t125 -301zM969 426v119q0 164 -117 280.5t-283 116.5q-164 0 -280.5 -116.5t-116.5 -280.5v-119q0 -164 117 -280.5t280 -116.5q166 0 283 116.5t117 280.5z" />
<glyph unicode="7" d="M967 1413l-551 -1413h-31l549 1413h-821v29h854v-29z" />
<glyph unicode="8" d="M987 369q0 -152 -108.5 -260.5t-260.5 -108.5h-116q-154 0 -261.5 108.5t-107.5 260.5q0 123 75 220t189 132q-115 35 -189.5 132t-74.5 222q0 152 107.5 259.5t261.5 107.5h116q152 0 260.5 -107.5t108.5 -259.5q0 -125 -74.5 -222t-189.5 -132q115 -35 189.5 -132 t74.5 -220zM958 1075q0 139 -100 238.5t-240 99.5h-116q-141 0 -240.5 -99.5t-99.5 -238.5q0 -141 99 -240.5t241 -99.5h116q139 0 239.5 99.5t100.5 240.5zM958 369q0 139 -100 238.5t-240 99.5h-116q-141 0 -240.5 -99.5t-99.5 -238.5q0 -141 99 -240.5t241 -99.5h116 q139 0 239.5 99.5t100.5 240.5z" />
<glyph unicode="9" d="M956 1016v-590q0 -176 -124.5 -301t-303.5 -125q-125 0 -228 67.5t-157 178.5l27 12q49 -102 145.5 -165.5t212.5 -63.5q166 0 283 116.5t117 280.5v315q-49 -121 -156.5 -195.5t-243.5 -74.5q-176 0 -301 125t-125 301v119q0 176 125 301t301 125q178 0 303 -125 t125 -301zM928 897v119q0 164 -117 280.5t-283 116.5q-164 0 -280.5 -116.5t-116.5 -280.5v-119q0 -164 117 -280.5t280 -116.5q166 0 283 116.5t117 280.5z" />
<glyph unicode=":" horiz-adv-x="294" d="M162 705h-29v264h29v-264zM162 0h-29v264h29v-264z" />
<glyph unicode=";" horiz-adv-x="407" d="M274 438l-28 -2v266h28v-264zM274 266v-260q0 -74 -38.5 -134t-102.5 -91v33q113 66 113 192v260h28z" />
<glyph unicode="&#x3c;" horiz-adv-x="1220" d="M1026 0l-831 475v25l831 475v-33l-795 -455l795 -452v-35z" />
<glyph unicode="=" horiz-adv-x="1196" d="M1083 707l-970 -2v30h970v-28zM1083 236h-970v28h970v-28z" />
<glyph unicode="&#x3e;" horiz-adv-x="1220" d="M1026 475l-831 -475v35l794 452l-794 455v33l831 -475v-25z" />
<glyph unicode="?" horiz-adv-x="946" d="M854 1075.5q0 -151.5 -108.5 -260t-260.5 -108.5h-45v-222h-28v250h73q139 0 238.5 99.5t99.5 240.5q0 139 -99 238.5t-239 99.5h-118q-109 0 -196 -62.5t-122 -162.5l-29 10q39 109 133.5 176.5t213.5 67.5h118q152 0 260.5 -107.5t108.5 -259zM440 0h-28v264h28v-264z " />
<glyph unicode="@" horiz-adv-x="1236" d="M1104 956v-352q0 -55 -39 -94t-92 -39q-55 0 -94 39t-39 94q-72 -133 -222 -133q-102 0 -175.5 73.5t-73.5 176.5q0 104 73.5 177t175.5 73q72 0 130.5 -36t91.5 -95v131h28v-367q0 -43 31 -73.5t74 -30.5t72.5 30.5t29.5 73.5v352q0 188 -134 322.5t-322.5 134.5 t-322.5 -134t-134 -323v-471q0 -188 134 -322t322 -134q125 0 231.5 63.5t166.5 169.5l26 -14q-63 -113 -175.5 -180.5t-248.5 -67.5q-201 0 -343 142.5t-142 342.5v471q0 201 142.5 343.5t343 142.5t343 -142.5t142.5 -343.5zM840 721q0 92 -64.5 156.5t-157.5 64.5 q-90 0 -155.5 -64.5t-65.5 -156.5q0 -90 65.5 -155.5t155.5 -65.5q92 0 157 65.5t65 155.5z" />
<glyph unicode="A" horiz-adv-x="1044" d="M1014 0h-31l-119 352h-684l-119 -352h-30l477 1442h29zM854 383l-332 993l-332 -993h664z" />
<glyph unicode="B" horiz-adv-x="1257" d="M1145 369q0 -152 -104.5 -260.5t-252.5 -108.5h-614v1442h614q147 0 252 -107.5t105 -259.5q0 -125 -72 -222t-184 -132q113 -35 184.5 -132t71.5 -220zM1116 1075q0 139 -96 238.5t-232 99.5h-585v-678h585q135 0 231.5 99.5t96.5 240.5zM1116 369q0 139 -96 238.5 t-232 99.5h-585v-678h585q135 0 231.5 99.5t96.5 240.5z" />
<glyph unicode="C" horiz-adv-x="1142" d="M1040 1198l-26 -14q-59 104 -165 166.5t-231 62.5q-188 0 -322 -134t-134 -323v-471q0 -188 134 -322t322 -134q125 0 230.5 62.5t165.5 166.5l26 -14q-63 -111 -175.5 -177.5t-246.5 -66.5q-201 0 -343 142.5t-142 342.5v471q0 201 142.5 343.5t342.5 142.5 q133 0 246 -66.5t176 -177.5z" />
<glyph unicode="D" horiz-adv-x="1277" d="M1145 956v-471q0 -201 -142.5 -343t-343.5 -142h-485v1442h485q201 0 343.5 -142.5t142.5 -343.5zM1116 485v471q0 188 -134 322.5t-323 134.5h-456v-1384h456q188 0 322.5 134t134.5 322z" />
<glyph unicode="E" horiz-adv-x="1288" d="M1145 0h-971v1442h971v-29h-942v-678h942v-28h-942v-678h942v-29z" />
<glyph unicode="F" horiz-adv-x="1257" d="M1145 707h-942v-707h-29v1442h971v-29h-942v-678h942v-28z" />
<glyph unicode="G" horiz-adv-x="1247" d="M1104 0h-29v319q-51 -141 -176 -230t-281 -89q-201 0 -343 142.5t-142 342.5v471q0 201 142.5 343.5t342.5 142.5q133 0 246 -66.5t176 -177.5l-26 -14q-59 104 -165 166.5t-231 62.5q-188 0 -322 -134t-134 -323v-471q0 -188 134 -322t322.5 -134t322.5 134t134 322v222 h-457v28h486v-735z" />
<glyph unicode="H" horiz-adv-x="1318" d="M1145 0h-29v707h-913v-707h-29v1442h29v-707h913v707h29v-1442z" />
<glyph unicode="I" horiz-adv-x="376" d="M203 0h-29v1442h29v-1442z" />
<glyph unicode="J" horiz-adv-x="688" d="M535 1442v-1014q0 -176 -126 -302t-303 -126h-75v31h75q166 0 282 116.5t116 280.5v1014h31z" />
<glyph unicode="K" horiz-adv-x="1200" d="M1165 0h-37l-561 850l-364 -361v-489h-29v1442h29v-910l919 910h41l-575 -572z" />
<glyph unicode="L" horiz-adv-x="1175" d="M1145 0h-971v1442h29v-1413h942v-29z" />
<glyph unicode="M" horiz-adv-x="1630" d="M1456 0h-29v1358l-598 -1358h-28l-598 1358v-1358h-29v1442h25l616 -1399l619 1399h22v-1442z" />
<glyph unicode="N" horiz-adv-x="1318" d="M1145 0h-21l-921 1378v-1378h-29v1442h23l919 -1379v1379h29v-1442z" />
<glyph unicode="O" horiz-adv-x="1236" d="M1104 956v-471q0 -201 -142.5 -343t-343 -142t-343 142.5t-142.5 342.5v471q0 201 142.5 343.5t343 142.5t343 -142.5t142.5 -343.5zM1075 485v471q0 188 -134 322.5t-322.5 134.5t-322.5 -134t-134 -323v-471q0 -188 134 -322t322.5 -134t322.5 134t134 322z" />
<glyph unicode="P" horiz-adv-x="1206" d="M1145 1075.5q0 -151.5 -104.5 -260t-252.5 -108.5h-585v-707h-29v1442h614q147 0 252 -107.5t105 -259zM1116 1075q0 139 -96 238.5t-232 99.5h-585v-678h585q135 0 231.5 99.5t96.5 240.5z" />
<glyph unicode="Q" horiz-adv-x="1253" d="M1110 14l-20 -20l-140 137q-137 -131 -332 -131q-201 0 -343 142.5t-142 342.5v471q0 201 142.5 343.5t343 142.5t343 -142.5t142.5 -343.5v-471q0 -195 -131 -331zM1075 485v471q0 188 -134 322.5t-322.5 134.5t-322.5 -134t-134 -323v-471q0 -188 134 -322t322.5 -134 t322.5 134t134 322z" />
<glyph unicode="R" horiz-adv-x="1245" d="M1153 0h-33l-313 707h-604v-707h-29v1442h614q147 0 252 -107.5t105 -259.5q0 -139 -88 -242.5t-219 -121.5zM1116 1075q0 139 -96 238.5t-232 99.5h-585v-678h585q135 0 231.5 99.5t96.5 240.5z" />
<glyph unicode="S" horiz-adv-x="1155" d="M1063 369q0 -152 -104.5 -260.5t-251.5 -108.5h-258q-115 0 -208.5 68.5t-127.5 177.5l26 10q35 -100 120 -163.5t190 -63.5h258q135 0 231 99t96 241q0 135 -85 209.5t-214 101.5q-59 14 -175 29.5t-122 17.5q-152 23 -249 112t-97 236q0 152 104.5 259.5t252.5 107.5 h258q115 0 208 -68.5t127 -175.5l-26 -10q-35 100 -120 162.5t-189 62.5h-258q-135 0 -231.5 -99.5t-96.5 -238.5q0 -141 94 -216t213 -99q43 -8 157.5 -23.5t149.5 -23.5q145 -33 236.5 -117t91.5 -227z" />
<glyph unicode="T" horiz-adv-x="1032" d="M1001 1413h-471v-1413h-28v1413h-471v29h970v-29z" />
<glyph unicode="U" horiz-adv-x="1277" d="M1124 1442v-957q0 -201 -142 -343t-343 -142t-343 142.5t-142 342.5v957h28v-957q0 -188 134.5 -322t322.5 -134t322.5 134t134.5 322v957h28z" />
<glyph unicode="V" horiz-adv-x="1030" d="M1010 1442l-480 -1442h-30l-480 1442h31l465 -1395l463 1395h31z" />
<glyph unicode="W" horiz-adv-x="1366" d="M1346 1442l-324 -1442h-31l-309 1376l-307 -1376h-31l-324 1442h31l307 -1374l310 1374h30l308 -1374l309 1374h31z" />
<glyph unicode="X" horiz-adv-x="1017" d="M1008 0h-35l-463 694l-465 -694h-35l482 721l-482 721h35l465 -694l463 694h35l-482 -721z" />
<glyph unicode="Y" horiz-adv-x="1038" d="M1018 1442l-483 -725v-717h-31v717l-484 725h35l465 -694l463 694h35z" />
<glyph unicode="Z" horiz-adv-x="1155" d="M1063 0h-971v29l936 1384h-936v29h971v-25l-936 -1388h936v-29z" />
<glyph unicode="[" horiz-adv-x="573" d="M502 0h-328v1444h328v-31h-299v-1382h299v-31z" />
<glyph unicode="\" horiz-adv-x="573" d="M543 0h-31l-481 1444h30z" />
<glyph unicode="]" horiz-adv-x="573" d="M399 0h-327v31h299v1382h-299v31h327v-1444z" />
<glyph unicode="^" horiz-adv-x="1075" d="M518 1405l-459 -803l-26 16l471 824h26l471 -826l-24 -14z" />
<glyph unicode="_" horiz-adv-x="1196" d="M1083 0h-970v29h970v-29z" />
<glyph unicode="`" horiz-adv-x="612" d="M520 1202l-14 -24l-414 235l14 25z" />
<glyph unicode="a" horiz-adv-x="1099" d="M956 0h-28v223q-43 -100 -134.5 -161.5t-205.5 -61.5h-236q-104 0 -177 72.5t-73 177t73 177.5t177 73h355q221 0 221 162q0 133 -96.5 206.5t-243.5 73.5h-117q-109 0 -197 -63.5t-122 -163.5l-29 10q39 111 133 178.5t215 67.5h117q160 0 264 -80t104 -229v-662z M928 369v188q-57 -86 -221 -86h-355q-90 0 -155.5 -64.5t-65.5 -156.5q0 -90 65.5 -155.5t155.5 -65.5h236q141 0 240.5 99.5t99.5 240.5z" />
<glyph unicode="b" horiz-adv-x="1130" d="M1028 545v-119q0 -176 -125 -301t-303 -125q-133 0 -240.5 75t-156.5 195v-270h-29v1442h29v-742q49 121 156.5 196t240.5 75q178 0 303 -125t125 -301zM999 426v119q0 164 -116.5 280.5t-282.5 116.5q-164 0 -280.5 -116.5t-116.5 -280.5v-119q0 -164 116.5 -280.5 t280.5 -116.5q166 0 282.5 116.5t116.5 280.5z" />
<glyph unicode="c" horiz-adv-x="997" d="M915 727l-26 -12q-49 102 -145.5 164.5t-215.5 62.5q-164 0 -280.5 -116.5t-116.5 -280.5v-119q0 -164 117 -280.5t280 -116.5q117 0 214.5 62.5t146.5 164.5l26 -12q-53 -111 -156.5 -177.5t-230.5 -66.5q-176 0 -301 125t-125 301v119q0 176 125 301t301 125 q127 0 230.5 -66.5t156.5 -177.5z" />
<glyph unicode="d" horiz-adv-x="1130" d="M956 0h-28v270q-49 -121 -156.5 -195.5t-243.5 -74.5q-176 0 -301 125t-125 301v119q0 176 125 301t301 125q135 0 243 -75t157 -196v742h28v-1442zM928 426v119q0 164 -117 280.5t-283 116.5q-164 0 -280.5 -116.5t-116.5 -280.5v-119q0 -164 117 -280.5t280 -116.5 q166 0 283 116.5t117 280.5z" />
<glyph unicode="e" horiz-adv-x="1058" d="M956 545v-74h-825v-45q0 -164 117 -280.5t280 -116.5q119 0 215.5 62.5t145.5 164.5l26 -12q-55 -111 -157.5 -177.5t-229.5 -66.5q-176 0 -301 125t-125 301v119q0 176 125 301t301 125q178 0 303 -125t125 -301zM928 500v45q0 164 -117 280.5t-283 116.5 q-164 0 -280.5 -116.5t-116.5 -280.5v-45h797z" />
<glyph unicode="f" horiz-adv-x="589" d="M569 942h-274v-942h-31v942h-274v29h274v221q0 104 74 177t176 73h55v-29h-55q-90 0 -154.5 -64.5t-64.5 -156.5v-221h274v-29z" />
<glyph unicode="g" d="M956 971v-1016q0 -176 -124.5 -301t-303.5 -125q-125 0 -228 67.5t-157 178.5l27 12q49 -102 145.5 -165.5t212.5 -63.5q166 0 283 116.5t117 280.5v315q-49 -121 -156.5 -195.5t-243.5 -74.5q-176 0 -301 125t-125 301v119q0 176 125 301t301 125q135 0 243 -75 t157 -196v271h28zM928 426v119q0 164 -117 280.5t-283 116.5q-164 0 -280.5 -116.5t-116.5 -280.5v-119q0 -164 117 -280.5t280 -116.5q166 0 283 116.5t117 280.5z" />
<glyph unicode="h" horiz-adv-x="1161" d="M1028 0h-29v545q0 164 -116.5 280.5t-282.5 116.5q-164 0 -280.5 -116.5t-116.5 -280.5v-545h-29v1442h29v-742q49 121 156.5 196t240.5 75q178 0 303 -125t125 -301v-545z" />
<glyph unicode="i" horiz-adv-x="356" d="M193 1178h-29v264h29v-264zM193 0h-29v971h29v-971z" />
<glyph unicode="j" horiz-adv-x="481" d="M307 1178h-28v264h28v-264zM307 971v-1192q0 -102 -72.5 -176t-177.5 -74h-47v29h47q92 0 157 65.5t65 155.5v1192h28z" />
<glyph unicode="k" horiz-adv-x="1093" d="M1042 0h-34l-367 631l-438 -375v-256h-29v1442h29v-1147l790 678h45l-374 -324z" />
<glyph unicode="l" horiz-adv-x="376" d="M203 0h-29v1442h29v-1442z" />
<glyph unicode="m" horiz-adv-x="1435" d="M1290 0h-30v692q0 102 -73 176t-177 74h-19q-102 0 -176 -73.5t-74 -176.5v-692h-28v692q0 102 -74 176t-176 74h-19q-104 0 -177.5 -73.5t-73.5 -176.5v-692h-29v971h29v-154q37 70 103 112t148 42h19q92 0 163.5 -52.5t100.5 -136.5q29 84 100.5 136.5t163.5 52.5h19 q117 0 198.5 -82t81.5 -197v-692z" />
<glyph unicode="n" horiz-adv-x="1150" d="M1018 0h-29v545q0 164 -116.5 280.5t-282.5 116.5q-164 0 -280.5 -116.5t-116.5 -280.5v-545h-29v971h29v-271q49 121 156.5 196t240.5 75q178 0 303 -125t125 -301v-545z" />
<glyph unicode="o" horiz-adv-x="1058" d="M956 545v-119q0 -176 -124.5 -301t-303.5 -125q-176 0 -301 125t-125 301v119q0 176 125 301t301 125q178 0 303 -125t125 -301zM928 426v119q0 164 -117 280.5t-283 116.5q-164 0 -280.5 -116.5t-116.5 -280.5v-119q0 -164 117 -280.5t280 -116.5q166 0 283 116.5 t117 280.5z" />
<glyph unicode="p" d="M1018 545v-119q0 -176 -125 -301t-303 -125q-133 0 -240.5 75t-156.5 195v-741h-29v1442h29v-271q49 121 156.5 196t240.5 75q178 0 303 -125t125 -301zM989 426v119q0 164 -116.5 280.5t-282.5 116.5q-164 0 -280.5 -116.5t-116.5 -280.5v-119q0 -164 116.5 -280.5 t280.5 -116.5q166 0 282.5 116.5t116.5 280.5z" />
<glyph unicode="q" d="M956 -471h-28v741q-49 -121 -156.5 -195.5t-243.5 -74.5q-176 0 -301 125t-125 301v119q0 176 125 301t301 125q135 0 243 -75t157 -196v271h28v-1442zM928 426v119q0 164 -117 280.5t-283 116.5q-164 0 -280.5 -116.5t-116.5 -280.5v-119q0 -164 117 -280.5t280 -116.5 q166 0 283 116.5t117 280.5z" />
<glyph unicode="r" horiz-adv-x="647" d="M606 942h-16q-164 0 -280.5 -116.5t-116.5 -280.5v-545h-29v971h29v-271q49 121 156.5 196t240.5 75h16v-29z" />
<glyph unicode="s" horiz-adv-x="1040" d="M928 252q0 -104 -73 -178t-177 -74h-250q-121 0 -216 68.5t-132 179.5l26 8q37 -100 125 -163.5t197 -63.5h250q92 0 156.5 65.5t64.5 157.5q0 45 -14.5 79t-47 56.5t-62.5 36.5t-86 24.5t-91 14.5t-102 10q-82 8 -127 13.5t-110.5 21.5t-99.5 40.5t-60.5 70t-26.5 106.5 q0 104 73.5 178t178.5 74h247q119 0 215.5 -69.5t135.5 -178.5l-29 -10q-35 100 -123 163.5t-199 63.5h-247q-92 0 -158 -64.5t-66 -156.5q0 -45 14.5 -80t48.5 -57.5t63.5 -36.5t89 -23.5t91 -13.5t103.5 -10q78 -6 125 -12.5t110.5 -23.5t97.5 -42t59.5 -70t25.5 -104z " />
<glyph unicode="t" horiz-adv-x="641" d="M569 0h-55q-102 0 -176 73.5t-74 176.5v692h-274v29h274v471h31v-471h274v-29h-274v-692q0 -90 64.5 -155.5t154.5 -65.5h55v-29z" />
<glyph unicode="u" horiz-adv-x="1150" d="M987 0h-29v270q-49 -121 -156.5 -195.5t-242.5 -74.5q-176 0 -301 125t-125 301v545h29v-545q0 -164 116.5 -280.5t280.5 -116.5q166 0 282.5 116.5t116.5 280.5v545h29v-971z" />
<glyph unicode="v" horiz-adv-x="921" d="M901 975l-424 -975h-33l-424 975h33l408 -938l407 938h33z" />
<glyph unicode="w" horiz-adv-x="1216" d="M1196 975l-285 -975h-32l-271 924l-270 -924h-31l-287 975h31l271 -922l272 922h31l270 -922l270 922h31z" />
<glyph unicode="x" horiz-adv-x="897" d="M887 971l-418 -486l418 -485h-39l-399 463l-400 -463h-39l420 485l-420 486h39l400 -463l399 463h39z" />
<glyph unicode="y" horiz-adv-x="917" d="M897 971l-627 -1442h-32l204 471l-422 971h33l406 -934l407 934h31z" />
<glyph unicode="z" horiz-adv-x="976" d="M915 944l-815 -915h815v-29h-854v29l816 913h-816v29h854v-27z" />
<glyph unicode="{" horiz-adv-x="700" d="M629 0h-76q-102 0 -176 73.5t-74 176.5v235q0 92 -64.5 157t-156.5 65v28q92 0 156.5 65.5t64.5 155.5v236q0 104 74 177t176 73h76v-29h-76q-92 0 -156.5 -64.5t-64.5 -156.5v-236q0 -80 -46 -144t-120 -91q74 -27 120 -91.5t46 -144.5v-235q0 -90 64.5 -155.5 t156.5 -65.5h76v-29z" />
<glyph unicode="|" horiz-adv-x="376" d="M203 0h-29v1442h29v-1442z" />
<glyph unicode="}" horiz-adv-x="700" d="M618 707q-90 0 -155.5 -64.5t-65.5 -157.5v-235q0 -102 -72.5 -176t-177.5 -74h-75v29h75q92 0 157 65.5t65 155.5v235q0 80 46 144.5t120 91.5q-74 27 -120 91.5t-46 143.5v236q0 92 -64.5 156.5t-157.5 64.5h-75v29h75q104 0 177 -73t73 -177v-236q0 -90 65.5 -155.5 t155.5 -65.5v-28z" />
<glyph unicode="~" horiz-adv-x="911" d="M799 481q-72 -76 -156 -75q-66 0 -187.5 70.5t-185.5 70.5q-72 0 -137 -66l-20 21q76 76 155 76q68 0 189 -71t184 -71q72 0 137 66z" />
<glyph unicode="&#xa1;" horiz-adv-x="376" d="M203 1178h-29v264h29v-264zM203 0h-29v971h29v-971z" />
<glyph unicode="&#xa2;" d="M967 723l-27 -12q-49 102 -145.5 164.5t-214.5 62.5q-164 0 -281 -116.5t-117 -280.5v-117q0 -166 117 -281.5t281 -115.5q119 0 215 61.5t145 163.5l27 -12q-51 -106 -150.5 -173t-220.5 -71v-236h-29v236q-172 6 -292.5 130t-120.5 298v117q0 174 120.5 298t292.5 128 v237h29v-237q121 -2 220.5 -68.5t150.5 -175.5z" />
<glyph unicode="&#xa3;" horiz-adv-x="1255" d="M1194 0h-956v707h-238v28h238v221q0 201 142 343.5t343 142.5q133 0 245.5 -65.5t176.5 -178.5l-27 -14q-59 104 -164.5 166.5t-230.5 62.5q-188 0 -322.5 -134t-134.5 -323v-221h629v-28h-629v-678h899v235h29v-264z" />
<glyph unicode="&#xa4;" horiz-adv-x="1071" d="M969 14l-23 -20l-112 129q-123 -123 -299 -123q-174 0 -297 123l-113 -129l-23 20l115 129q-109 121 -108 285v117q0 164 108 284l-115 129l23 21l113 -129q123 123 297 123q176 0 299 -123l112 129l23 -21l-115 -129q109 -121 109 -284v-117q0 -164 -109 -283zM932 428 v117q0 166 -116 281.5t-281 115.5q-164 0 -281 -115.5t-117 -281.5v-117q0 -164 117 -280.5t281 -116.5q166 0 281.5 116.5t115.5 280.5z" />
<glyph unicode="&#xa5;" horiz-adv-x="1040" d="M1020 1442l-315 -471h301v-29h-320l-151 -225v-217h471v-29h-471v-471h-29v471h-471v29h471v217l-152 225h-319v29h301l-316 471h35l465 -694l465 694h35z" />
<glyph unicode="&#xa6;" horiz-adv-x="376" d="M203 940h-29v500h29v-500zM203 -2h-29v500h29v-500z" />
<glyph unicode="&#xa7;" horiz-adv-x="1093" d="M981 250q0 -102 -73.5 -176t-176.5 -74h-256q-119 0 -214 68.5t-134 177.5l29 10q35 -100 123 -163.5t196 -63.5h256q90 0 155.5 65.5t65.5 155.5q0 82 -74.5 131t-183.5 65l-350 52q-94 14 -154.5 84.5t-60.5 162.5q0 86 52 152t132 90q-186 61 -186 205q0 104 73.5 177 t176.5 73h256q119 0 214 -68.5t134 -177.5l-29 -10q-35 100 -123 163.5t-196 63.5h-256q-90 0 -155.5 -64.5t-65.5 -156.5q0 -82 74.5 -132t183.5 -67l350 -49q94 -14 154.5 -85t60.5 -163q0 -88 -52.5 -154.5t-131.5 -88.5q186 -58 186 -203zM948 666q2 10 2 30 q0 82 -54 144.5t-136 74.5l-350 50q-10 2 -31 2q-90 0 -155.5 -63.5t-65.5 -158.5q0 -82 54 -144t136 -75l350 -51q10 -2 29 -2q84 0 146.5 55.5t74.5 137.5z" />
<glyph unicode="&#xa8;" horiz-adv-x="569" d="M436 1180h-28v264h28v-264zM162 1180h-29v264h29v-264z" />
<glyph unicode="&#xa9;" horiz-adv-x="1669" d="M1556 721q0 -299 -211.5 -510t-510.5 -211t-510 211t-211 510t212 510t509 211q299 0 510.5 -211t211.5 -510zM1526 721q0 287 -203 489.5t-489.5 202.5t-489.5 -202.5t-203 -489.5t203 -489.5t489.5 -202.5t489.5 202.5t203 489.5zM1116 1038l-24 -14q-39 68 -108 107.5 t-150 39.5q-123 0 -209 -86t-86 -208v-312q0 -123 86 -210t209 -87q82 0 150.5 41t107.5 109l24 -17q-43 -74 -117.5 -117.5t-164.5 -43.5q-135 0 -230.5 95t-95.5 230v312q0 135 95 230t231 95q90 0 164.5 -44t117.5 -120z" />
<glyph unicode="&#xaa;" horiz-adv-x="600" d="M508 971h-14v108q-20 -49 -64.5 -78.5t-99.5 -29.5h-115q-51 0 -87 34.5t-36 86t36 87t87 35.5h172q106 0 107 78q0 66 -46.5 102t-117.5 36h-58q-53 0 -96 -31t-59 -80l-15 4q18 53 64.5 87t105.5 34h58q76 0 127 -40t51 -112v-321zM494 1149v92q-27 -41 -107 -41h-172 q-45 0 -77 -31.5t-32 -76.5t32 -76t77 -31h115q68 0 116 48t48 116z" />
<glyph unicode="&#xab;" horiz-adv-x="1015" d="M954 0h-41l-419 477v21l417 477h39l-426 -488zM543 0h-39l-422 477v21l418 477h39l-426 -488z" />
<glyph unicode="&#xac;" horiz-adv-x="1112" d="M1020 0h-31v475h-938v29h969v-504z" />
<glyph unicode="&#xad;" horiz-adv-x="710" d="M598 475h-485v29h485v-29z" />
<glyph unicode="&#xae;" horiz-adv-x="1669" d="M1159 954q0 -92 -57.5 -160.5t-143.5 -84.5l211 -469h-32l-209 467h-389v-467h-31v962h412q100 0 169.5 -73t69.5 -175zM1556 721q0 -299 -211.5 -510t-510.5 -211t-510 211t-211 510t212 510t509 211q299 0 510.5 -211t211.5 -510zM1526 721q0 287 -203 489.5 t-489.5 202.5t-489.5 -202.5t-203 -489.5t203 -489.5t489.5 -202.5t489.5 202.5t203 489.5zM1130 954q0 90 -61 155t-149 65h-381v-439h381q88 0 149 64.5t61 154.5z" />
<glyph unicode="&#xaf;" horiz-adv-x="710" d="M598 1413h-485v29h485v-29z" />
<glyph unicode="&#xb0;" horiz-adv-x="761" d="M670 1161v-176q0 -117 -82 -198.5t-199 -81.5h-16q-117 0 -199 81.5t-82 198.5v176q0 115 82 197t199 82h16q117 0 199 -82t82 -197zM641 985v176q0 102 -73.5 176t-178.5 74h-16q-104 0 -178 -73.5t-74 -176.5v-176q0 -104 73.5 -178t178.5 -74h16q104 0 178 74t74 178z " />
<glyph unicode="&#xb1;" horiz-adv-x="1200" d="M1087 0h-970v29h970v-29zM1083 948h-471v-475h-28v475h-471v29h471v467h28v-467h471v-29z" />
<glyph unicode="&#xb2;" horiz-adv-x="686" d="M553 1255q0 -68 -37 -110l-360 -406h381v-30h-424v24l379 428q31 33 30 94q0 68 -47 116t-115 48h-59q-53 0 -95 -30.5t-59 -77.5l-28 8q20 57 70.5 93t111.5 36h59q80 0 136.5 -56.5t56.5 -136.5z" />
<glyph unicode="&#xb3;" horiz-adv-x="657" d="M535 901q0 -80 -56.5 -136t-136.5 -56h-59q-61 0 -110.5 35.5t-70.5 93.5l29 8q16 -47 58 -77t94 -30h59q68 0 116 47.5t48 115t-48 114.5t-116 47h-59v31h59q68 0 116 47t48 114.5t-48 115.5t-116 48h-59q-51 0 -93.5 -30.5t-58.5 -77.5l-29 8q20 57 69.5 93t111.5 36 h59q80 0 136.5 -56.5t56.5 -136.5q0 -59 -33 -106t-86 -70q53 -23 86 -71t33 -107z" />
<glyph unicode="&#xb4;" horiz-adv-x="612" d="M520 1413l-414 -235l-14 24l414 236z" />
<glyph unicode="&#xb5;" horiz-adv-x="1181" d="M1018 0h-29v270q-49 -121 -156.5 -195.5t-242.5 -74.5q-133 0 -240.5 75t-156.5 195v-741h-29v1442h29v-545q0 -164 116.5 -280.5t280.5 -116.5q166 0 282.5 116.5t116.5 280.5v545h29v-971z" />
<glyph unicode="&#x3bc;" horiz-adv-x="1181" d="M1018 0h-29v270q-49 -121 -156.5 -195.5t-242.5 -74.5q-133 0 -240.5 75t-156.5 195v-741h-29v1442h29v-545q0 -164 116.5 -280.5t280.5 -116.5q166 0 282.5 116.5t116.5 280.5v545h29v-971z" />
<glyph unicode="&#xb6;" horiz-adv-x="1185" d="M1012 0h-29v707h-442v-707h-29v707h-115q-147 0 -251.5 108.5t-104.5 260t104.5 259t251.5 107.5h615v-1442zM983 735v678h-442v-678h442z" />
<glyph unicode="&#xb7;" horiz-adv-x="294" d="M162 438h-29v267h29v-267z" />
<glyph unicode="&#xb8;" horiz-adv-x="348" d="M297 -150q0 -51 -36 -86.5t-87 -35.5t-87 35.5t-36 86.5h27q0 -39 28.5 -66.5t67.5 -27.5t66.5 28t27.5 66.5t-27.5 67.5t-66.5 29h-14v84h26v-58q47 -6 79 -41t32 -82z" />
<glyph unicode="&#xb9;" horiz-adv-x="481" d="M307 709h-28v710h-207v29h235v-739z" />
<glyph unicode="&#xba;" horiz-adv-x="620" d="M518 1235v-57q0 -86 -60.5 -146.5t-146.5 -60.5q-88 0 -148.5 60.5t-60.5 146.5v57q0 86 60.5 147.5t148.5 61.5q86 0 146.5 -61.5t60.5 -147.5zM504 1178v57q0 80 -56.5 137.5t-136.5 57.5q-82 0 -138 -57.5t-56 -137.5v-57q0 -80 56 -136.5t138 -56.5q80 0 136.5 56.5 t56.5 136.5z" />
<glyph unicode="&#xbb;" horiz-adv-x="1015" d="M934 477l-422 -477h-39l430 487l-426 488h39l418 -477v-21zM520 477l-420 -477h-39l428 487l-423 488h38l416 -477v-21z" />
<glyph unicode="&#xbc;" horiz-adv-x="1200" d="M997 1448l-843 -1448h-33l844 1448h32zM307 709h-28v710h-207v29h235v-739zM1047 0h-29v236h-414v30l141 473h31l-137 -473h379v236h29v-502z" />
<glyph unicode="&#xbd;" horiz-adv-x="1169" d="M997 1448l-843 -1448h-33l844 1448h32zM307 709h-28v710h-207v29h235v-739zM1047 547q0 -74 -39 -115l-357 -403h381v-29h-424v25l379 428q31 37 31 94q0 68 -48 115t-116 47h-59q-51 0 -93.5 -31t-58.5 -78l-29 10q20 57 69.5 93t111.5 36h59q80 0 136.5 -56t56.5 -136z " />
<glyph unicode="&#xbe;" horiz-adv-x="1206" d="M545 901q0 -80 -56.5 -136t-136.5 -56h-59q-61 0 -110.5 35.5t-69.5 93.5l28 8q16 -47 58.5 -77t93.5 -30h59q68 0 116 47.5t48 115t-48 114.5t-116 47h-59v31h59q68 0 116 47t48 114.5t-48 115.5t-116 48h-59q-51 0 -93 -30.5t-59 -77.5l-28 8q20 57 69 93t111 36h59 q80 0 136.5 -56.5t56.5 -136.5q0 -59 -33 -106t-86 -70q53 -23 86 -71t33 -107zM1038 1448l-843 -1448h-33l844 1448h32zM1087 0h-28v236h-414v30l141 473h31l-137 -473h379v236h28v-502z" />
<glyph unicode="&#xbf;" horiz-adv-x="946" d="M535 1178h-29v264h29v-264zM926 246q-39 -109 -134.5 -177.5t-213.5 -68.5h-117q-154 0 -261.5 108.5t-107.5 260t107.5 259t261.5 107.5h45v221h29v-249h-74q-141 0 -240.5 -99.5t-99.5 -238.5q0 -141 99 -240.5t241 -99.5h117q109 0 196.5 63.5t122.5 163.5z" />
<glyph unicode="&#xc0;" horiz-adv-x="1044" d="M1014 0h-31l-119 352h-684l-119 -352h-30l477 1442h29zM854 383l-332 993l-332 -993h664zM647 1597l-14 -24l-227 133l14 25z" />
<glyph unicode="&#xc1;" horiz-adv-x="1044" d="M1014 0h-31l-119 352h-684l-119 -352h-30l477 1442h29zM854 383l-332 993l-332 -993h664zM420 1573l-14 24l227 134l14 -25z" />
<glyph unicode="&#xc2;" horiz-adv-x="1044" d="M1014 0h-31l-119 352h-684l-119 -352h-30l477 1442h29zM854 383l-332 993l-332 -993h664zM762 1597l-14 -24l-226 131l-225 -131l-14 24l227 134h25z" />
<glyph unicode="&#xc3;" horiz-adv-x="1044" d="M1014 0h-31l-119 352h-684l-119 -352h-30l477 1442h29zM854 383l-332 993l-332 -993h664zM217 1573v14q0 72 49 121t121 49q59 0 105 -39l86 -78q41 -39 94 -38q57 0 99 40.5t42 100.5v14h29v-14q0 -72 -50.5 -121t-119.5 -49q-59 0 -105 39l-86 78q-41 39 -94 39 q-57 0 -98 -41t-41 -101v-14h-31z" />
<glyph unicode="&#xc4;" horiz-adv-x="1044" d="M676 1575l-29 -2v266h29v-264zM401 1573h-28v266h28v-266zM1014 0h-31l-119 352h-684l-119 -352h-30l477 1442h29zM854 383l-332 993l-332 -993h664z" />
<glyph unicode="&#xc5;" horiz-adv-x="1044" d="M682 1732.5q0 -65.5 -47 -112.5t-113 -47q-68 0 -115 47t-47 112.5t47.5 112.5t112.5 47q68 0 115 -47t47 -112.5zM1014 0h-31l-119 352h-684l-119 -352h-30l477 1442h29zM651 1732.5q0 53.5 -38 92.5t-91 39q-55 0 -93 -39t-38 -92.5t38 -91t91 -37.5q55 0 93 37.5 t38 91zM854 383l-332 993l-332 -993h664z" />
<glyph unicode="&#xc6;" horiz-adv-x="2070" d="M1927 0h-973v352h-686l-233 -352h-35l954 1442h973v-29h-942v-678h942v-28h-942v-678h942v-29zM954 381v1005l-665 -1005h665z" />
<glyph unicode="&#xc7;" horiz-adv-x="1142" d="M1040 1198l-26 -14q-59 104 -165 166.5t-231 62.5q-188 0 -322 -134t-134 -323v-471q0 -188 134 -322t322 -134q125 0 230.5 62.5t165.5 166.5l26 -14q-61 -109 -169.5 -174.5t-237.5 -69.5v-27q47 -6 78.5 -40.5t31.5 -82.5q0 -51 -35.5 -86.5t-87 -35.5t-87 35.5 t-35.5 86.5h26q0 -39 29 -66.5t67.5 -27.5t66.5 28t28 66.5t-28 67.5t-66 29h-15v53q-197 4 -335 145.5t-138 339.5v471q0 201 142.5 343.5t342.5 142.5q133 0 246 -66.5t176 -177.5z" />
<glyph unicode="&#xc8;" horiz-adv-x="1288" d="M1145 0h-971v1442h971v-29h-942v-678h942v-28h-942v-678h942v-29zM770 1597l-14 -24l-228 133l15 25z" />
<glyph unicode="&#xc9;" horiz-adv-x="1288" d="M1145 0h-971v1442h971v-29h-942v-678h942v-28h-942v-678h942v-29zM543 1573l-15 24l228 134l14 -25z" />
<glyph unicode="&#xca;" horiz-adv-x="1288" d="M1145 0h-971v1442h971v-29h-942v-678h942v-28h-942v-678h942v-29zM899 1597l-14 -24l-226 131l-225 -131l-14 24l227 134h25z" />
<glyph unicode="&#xcb;" horiz-adv-x="1288" d="M809 1573h-29v264h29v-264zM535 1573h-29v264h29v-264zM1145 0h-971v1442h971v-29h-942v-678h942v-28h-942v-678h942v-29z" />
<glyph unicode="&#xcc;" horiz-adv-x="376" d="M203 0h-29v1442h29v-1442zM309 1597l-14 -24l-227 133l14 25z" />
<glyph unicode="&#xcd;" horiz-adv-x="376" d="M203 0h-29v1442h29v-1442zM82 1573l-14 24l227 134l14 -25z" />
<glyph unicode="&#xce;" horiz-adv-x="376" d="M203 0h-29v1442h29v-1442zM428 1597l-14 -24l-226 131l-225 -131l-14 24l227 134h25z" />
<glyph unicode="&#xcf;" horiz-adv-x="376" d="M203 0h-29v1442h29v-1442zM340 1573h-29v264h29v-264zM66 1573h-29v264h29v-264z" />
<glyph unicode="&#xd0;" horiz-adv-x="1429" d="M1296 487q0 -201 -143 -343t-344 -142h-485v707h-314v28h314v707h485q201 0 344 -142.5t143 -343.5v-471zM1266 487v471q0 188 -134.5 322.5t-322.5 134.5h-455v-678h314v-28h-314v-678h455q188 0 322.5 134t134.5 322z" />
<glyph unicode="&#xd1;" horiz-adv-x="1318" d="M1145 0h-21l-921 1378v-1378h-29v1442h23l919 -1379v1379h29v-1442zM350 1575v14q0 70 50.5 120t119.5 50q59 0 105 -39l86 -78q41 -39 94 -38q59 0 100 42t41 99v14h29v-14q0 -70 -49 -120t-121 -50q-59 0 -105 39l-86 78q-41 39 -94 39q-57 0 -98 -41t-41 -101v-14h-31 z" />
<glyph unicode="&#xd2;" horiz-adv-x="1236" d="M1104 956v-471q0 -201 -142.5 -343t-343 -142t-343 142.5t-142.5 342.5v471q0 201 142.5 343.5t343 142.5t343 -142.5t142.5 -343.5zM1075 485v471q0 188 -134 322.5t-322.5 134.5t-322.5 -134t-134 -323v-471q0 -188 134 -322t322.5 -134t322.5 134t134 322zM758 1597 l-15 -24l-227 133l14 25z" />
<glyph unicode="&#xd3;" horiz-adv-x="1236" d="M1104 956v-471q0 -201 -142.5 -343t-343 -142t-343 142.5t-142.5 342.5v471q0 201 142.5 343.5t343 142.5t343 -142.5t142.5 -343.5zM1075 485v471q0 188 -134 322.5t-322.5 134.5t-322.5 -134t-134 -323v-471q0 -188 134 -322t322.5 -134t322.5 134t134 322zM530 1573 l-14 24l227 134l15 -25z" />
<glyph unicode="&#xd4;" horiz-adv-x="1236" d="M1104 956v-471q0 -201 -142.5 -343t-343 -142t-343 142.5t-142.5 342.5v471q0 201 142.5 343.5t343 142.5t343 -142.5t142.5 -343.5zM1075 485v471q0 188 -134 322.5t-322.5 134.5t-322.5 -134t-134 -323v-471q0 -188 134 -322t322.5 -134t322.5 134t134 322zM858 1597 l-14 -24l-226 131l-225 -131l-14 24l227 134h25z" />
<glyph unicode="&#xd5;" horiz-adv-x="1236" d="M1104 958v-471q0 -201 -142.5 -344t-343 -143t-343 143.5t-142.5 343.5v471q0 201 142.5 343.5t343 142.5t343 -142.5t142.5 -343.5zM1075 487v471q0 188 -134 321.5t-322.5 133.5t-322.5 -133t-134 -322v-471q0 -188 134 -322t322.5 -134t322.5 134t134 322zM309 1575 v14q0 70 50.5 120t119.5 50q59 0 105 -39l86 -78q41 -39 94 -38q59 0 100 42t41 99v14h29v-14q0 -70 -49 -120t-121 -50q-59 0 -105 39l-86 78q-41 39 -94 39q-57 0 -98 -41t-41 -101v-14h-31z" />
<glyph unicode="&#xd6;" horiz-adv-x="1236" d="M768 1573h-29v264h29v-264zM494 1573h-29v264h29v-264zM1104 956v-471q0 -201 -142.5 -343t-343 -142t-343 142.5t-142.5 342.5v471q0 201 142.5 343.5t343 142.5t343 -142.5t142.5 -343.5zM1075 485v471q0 188 -134 322.5t-322.5 134.5t-322.5 -134t-134 -323v-471 q0 -188 134 -322t322.5 -134t322.5 134t134 322z" />
<glyph unicode="&#xd7;" horiz-adv-x="1032" d="M870 827l-333 -333l337 -336l-20 -21l-336 338l-334 -334l-20 21l334 332l-332 331l20 21l332 -332l332 334z" />
<glyph unicode="&#xd8;" horiz-adv-x="1236" d="M1130 1442l-120 -180q109 -131 108 -306v-471q0 -201 -142 -343t-343 -142q-215 0 -359 158l-106 -158h-35l121 182q-106 129 -107 303v471q0 201 142.5 343.5t343.5 142.5q213 0 358 -156l105 156h34zM973 1260q-133 154 -340 153q-188 0 -322.5 -134t-134.5 -323v-471 q0 -156 94 -278zM1090 485v471q0 154 -97 281l-702 -1053q135 -156 342 -155q188 0 322.5 134t134.5 322z" />
<glyph unicode="&#xd9;" horiz-adv-x="1277" d="M1124 1442v-957q0 -201 -142 -343t-343 -142t-343 142.5t-142 342.5v957h28v-957q0 -188 134.5 -322t322.5 -134t322.5 134t134.5 322v957h28zM758 1597l-15 -24l-227 133l14 25z" />
<glyph unicode="&#xda;" horiz-adv-x="1277" d="M1124 1442v-957q0 -201 -142 -343t-343 -142t-343 142.5t-142 342.5v957h28v-957q0 -188 134.5 -322t322.5 -134t322.5 134t134.5 322v957h28zM530 1573l-14 24l227 134l15 -25z" />
<glyph unicode="&#xdb;" horiz-adv-x="1277" d="M1124 1442v-957q0 -201 -142 -343t-343 -142t-343 142.5t-142 342.5v957h28v-957q0 -188 134.5 -322t322.5 -134t322.5 134t134.5 322v957h28zM874 1597l-14 -24l-225 131l-225 -131l-15 24l228 134h24z" />
<glyph unicode="&#xdc;" horiz-adv-x="1277" d="M788 1573h-28v264h28v-264zM514 1573h-29v264h29v-264zM1124 1442v-957q0 -201 -142 -343t-343 -142t-343 142.5t-142 342.5v957h28v-957q0 -188 134.5 -322t322.5 -134t322.5 134t134.5 322v957h28z" />
<glyph unicode="&#xdd;" horiz-adv-x="1019" d="M1010 1442l-486 -725v-717h-28v717l-486 725h35l465 -694l465 694h35zM399 1573l-14 24l227 134l15 -25z" />
<glyph unicode="&#xde;" horiz-adv-x="1196" d="M1145 722.5q0 -151.5 -104.5 -260t-252.5 -108.5h-585v-354h-29v1444h29v-354h585q147 0 252 -108t105 -259.5zM1116 723q0 139 -96 238.5t-232 99.5h-585v-678h585q135 0 231.5 99.5t96.5 240.5z" />
<glyph unicode="&#xdf;" horiz-adv-x="1140" d="M1018 369q0 -154 -108.5 -261.5t-260.5 -107.5h-117v29h117q141 0 240.5 99t99.5 241q0 139 -99 238.5t-241 99.5h-65v28h65q141 0 240.5 99.5t99.5 240.5q0 139 -99 238.5t-241 99.5h-117q-141 0 -240 -99.5t-99 -238.5v-1075h-29v1075q0 152 107.5 259.5t260.5 107.5 h117q152 0 260.5 -107.5t108.5 -259.5q0 -125 -75 -222t-189 -132q115 -35 189.5 -132t74.5 -220z" />
<glyph unicode="&#xe0;" horiz-adv-x="1099" d="M956 0h-28v223q-43 -100 -135.5 -161.5t-204.5 -61.5h-236q-102 0 -176 73.5t-74 176.5q0 104 74 177t176 73h355q221 0 221 162q0 133 -95.5 206.5t-244.5 73.5h-117q-111 0 -198 -63.5t-121 -163.5l-29 10q39 109 134 177.5t214 68.5h117q160 0 264 -80t104 -229v-662z M928 369v188q-57 -86 -221 -86h-355q-90 0 -155.5 -64.5t-65.5 -156.5q0 -90 65.5 -155.5t155.5 -65.5h236q141 0 240.5 99.5t99.5 240.5zM627 1206l-15 -24l-227 133l14 24z" />
<glyph unicode="&#xe1;" horiz-adv-x="1099" d="M956 0h-28v223q-43 -100 -135.5 -161.5t-204.5 -61.5h-236q-102 0 -176 73.5t-74 176.5q0 104 74 177t176 73h355q221 0 221 162q0 133 -95.5 206.5t-244.5 73.5h-117q-111 0 -198 -63.5t-121 -163.5l-29 10q39 109 134 177.5t214 68.5h117q160 0 264 -80t104 -229v-662z M928 369v188q-57 -86 -221 -86h-355q-90 0 -155.5 -64.5t-65.5 -156.5q0 -90 65.5 -155.5t155.5 -65.5h236q141 0 240.5 99.5t99.5 240.5zM399 1182l-14 24l227 133l15 -24z" />
<glyph unicode="&#xe2;" horiz-adv-x="1099" d="M956 0h-28v223q-43 -100 -135.5 -161.5t-204.5 -61.5h-236q-102 0 -176 73.5t-74 176.5q0 104 74 177t176 73h355q221 0 221 162q0 133 -95.5 206.5t-244.5 73.5h-117q-111 0 -198 -63.5t-121 -163.5l-29 10q39 109 134 177.5t214 68.5h117q160 0 264 -80t104 -229v-662z M928 369v188q-57 -86 -221 -86h-355q-90 0 -155.5 -64.5t-65.5 -156.5q0 -90 65.5 -155.5t155.5 -65.5h236q141 0 240.5 99.5t99.5 240.5zM303 1178l-14 24l227 133h25l227 -133l-14 -24l-226 131z" />
<glyph unicode="&#xe3;" horiz-adv-x="1099" d="M956 0h-28v223q-43 -100 -135.5 -161.5t-204.5 -61.5h-236q-102 0 -176 73.5t-74 176.5q0 104 74 177t176 73h355q221 0 221 162q0 133 -95.5 206.5t-244.5 73.5h-117q-111 0 -198 -63.5t-121 -163.5l-29 10q39 109 134 177.5t214 68.5h117q160 0 264 -80t104 -229v-662z M928 369v188q-57 -86 -221 -86h-355q-90 0 -155.5 -64.5t-65.5 -156.5q0 -90 65.5 -155.5t155.5 -65.5h236q141 0 240.5 99.5t99.5 240.5zM217 1178v14q0 70 49 120t121 50q59 0 105 -39l86 -78q41 -39 94 -39q57 0 99 42t42 100v14h29v-14q0 -70 -50.5 -120t-119.5 -50 q-59 0 -105 39l-86 77q-41 39 -94 39q-57 0 -98 -41t-41 -100v-14h-31z" />
<glyph unicode="&#xe4;" horiz-adv-x="1099" d="M682 1178h-29v264h29v-264zM408 1178h-31v264h31v-264zM956 0h-28v223q-43 -100 -135.5 -161.5t-204.5 -61.5h-236q-102 0 -176 73.5t-74 176.5q0 104 74 177t176 73h355q221 0 221 162q0 133 -95.5 206.5t-244.5 73.5h-117q-111 0 -198 -63.5t-121 -163.5l-29 10 q39 109 134 177.5t214 68.5h117q160 0 264 -80t104 -229v-662zM928 369v188q-57 -86 -221 -86h-355q-90 0 -155.5 -64.5t-65.5 -156.5q0 -90 65.5 -155.5t155.5 -65.5h236q141 0 240.5 99.5t99.5 240.5z" />
<glyph unicode="&#xe5;" horiz-adv-x="1099" d="M680 1282.5q0 -65.5 -47 -114t-112.5 -48.5t-113 48.5t-47.5 114t47.5 112.5t113 47t112.5 -47t47 -112.5zM956 0h-28v223q-43 -100 -135.5 -161.5t-204.5 -61.5h-236q-102 0 -176 73.5t-74 176.5q0 104 74 177t176 73h355q221 0 221 162q0 133 -95.5 206.5t-244.5 73.5 h-117q-111 0 -198 -63.5t-121 -163.5l-29 10q39 109 134 177.5t214 68.5h117q160 0 264 -80t104 -229v-662zM649 1282q0 53 -38 91t-91 38t-91 -38t-38 -91t38 -92t91 -39t91 39t38 92zM928 369v188q-57 -86 -221 -86h-355q-90 0 -155.5 -64.5t-65.5 -156.5 q0 -90 65.5 -155.5t155.5 -65.5h236q141 0 240.5 99.5t99.5 240.5z" />
<glyph unicode="&#xe6;" horiz-adv-x="1861" d="M1759 545v-74h-823v-45q0 -164 116.5 -280.5t280.5 -116.5q117 0 213 62.5t146 164.5l26 -12q-51 -109 -155.5 -176.5t-229.5 -67.5q-139 0 -250.5 82t-154.5 211q-27 -127 -127.5 -210t-233.5 -83h-235q-102 0 -176 73.5t-74 176.5q0 104 73.5 177t176.5 73h354 q221 0 221 162q0 133 -95 206.5t-245 73.5h-116q-111 0 -198 -63.5t-122 -163.5l-29 10q39 109 134.5 177.5t214.5 68.5h116q150 0 252.5 -71t114.5 -204q47 123 155.5 199t243.5 76q178 0 302 -125t124 -301zM1731 500v45q0 164 -117 280.5t-281 116.5t-280.5 -116.5 t-116.5 -280.5v-45h795zM907 369v188q-57 -86 -221 -86h-354q-90 0 -155.5 -64.5t-65.5 -156.5q0 -90 65.5 -155.5t155.5 -65.5h235q141 0 240.5 99.5t99.5 240.5z" />
<glyph unicode="&#xe7;" horiz-adv-x="999" d="M915 727l-26 -12q-49 102 -145.5 164.5t-215.5 62.5q-164 0 -280.5 -116.5t-116.5 -280.5v-119q0 -164 117 -280.5t280 -116.5q117 0 214.5 62.5t146.5 164.5l26 -12q-51 -109 -151 -175.5t-223 -68.5v-27q47 -6 77.5 -40.5t30.5 -82.5q0 -51 -35.5 -86.5t-87 -35.5 t-87.5 35.5t-36 86.5h29q0 -39 27.5 -66.5t66.5 -27.5t68 28t29 66.5t-29 67.5t-68 29h-12v53q-172 6 -292 130t-120 296v119q0 176 125 301t301 125q127 0 230.5 -66.5t156.5 -177.5z" />
<glyph unicode="&#xe8;" horiz-adv-x="1058" d="M956 545v-74h-825v-45q0 -164 117 -280.5t280 -116.5q117 0 214.5 62.5t146.5 164.5l26 -12q-53 -111 -156.5 -177.5t-230.5 -66.5q-176 0 -301 125t-125 301v119q0 176 125 301t301 125q178 0 303 -125t125 -301zM928 500v45q0 164 -117 280.5t-283 116.5 q-164 0 -280.5 -116.5t-116.5 -280.5v-45h797zM668 1206l-15 -24l-227 133l14 24z" />
<glyph unicode="&#xe9;" horiz-adv-x="1058" d="M956 545v-74h-825v-45q0 -164 117 -280.5t280 -116.5q117 0 214.5 62.5t146.5 164.5l26 -12q-53 -111 -156.5 -177.5t-230.5 -66.5q-176 0 -301 125t-125 301v119q0 176 125 301t301 125q178 0 303 -125t125 -301zM928 500v45q0 164 -117 280.5t-283 116.5 q-164 0 -280.5 -116.5t-116.5 -280.5v-45h797zM420 1182l-14 24l227 133l14 -24z" />
<glyph unicode="&#xea;" horiz-adv-x="1058" d="M956 545v-74h-825v-45q0 -164 117 -280.5t280 -116.5q117 0 214.5 62.5t146.5 164.5l26 -12q-53 -111 -156.5 -177.5t-230.5 -66.5q-176 0 -301 125t-125 301v119q0 176 125 301t301 125q178 0 303 -125t125 -301zM928 500v45q0 164 -117 280.5t-283 116.5 q-164 0 -280.5 -116.5t-116.5 -280.5v-45h797zM303 1178l-14 24l227 133h25l227 -133l-14 -24l-226 131z" />
<glyph unicode="&#xeb;" horiz-adv-x="1058" d="M956 545v-74h-825v-45q0 -164 117 -280.5t280 -116.5q117 0 214.5 62.5t146.5 164.5l26 -12q-53 -111 -156.5 -177.5t-230.5 -66.5q-176 0 -301 125t-125 301v119q0 176 125 301t301 125q178 0 303 -125t125 -301zM928 500v45q0 164 -117 280.5t-283 116.5 q-164 0 -280.5 -116.5t-116.5 -280.5v-45h797zM682 1178h-29v264h29v-264zM408 1178h-31v264h31v-264z" />
<glyph unicode="&#xec;" horiz-adv-x="356" d="M193 -2h-29v971h29v-971zM299 1206l-14 -24l-228 133l15 24z" />
<glyph unicode="&#xed;" horiz-adv-x="356" d="M193 -2h-29v971h29v-971zM72 1182l-15 24l228 133l14 -24z" />
<glyph unicode="&#xee;" horiz-adv-x="356" d="M193 -2h-29v971h29v-971zM-47 1178l-14 24l227 133h24l228 -133l-15 -24l-225 131z" />
<glyph unicode="&#xef;" horiz-adv-x="356" d="M193 -2h-29v971h29v-971z" />
<glyph unicode="&#xf0;" horiz-adv-x="1277" d="M1268 1180h-312v-1178h-28v270q-49 -121 -156.5 -195.5t-243.5 -74.5q-176 0 -301 125t-125 301v119q0 176 125 301t301 125q135 0 243 -75t157 -196v478h-318v28h318v236h28v-236h312v-28zM928 428v119q0 164 -117 280.5t-283 116.5q-164 0 -280.5 -116.5t-116.5 -280.5 v-119q0 -164 117 -280.5t280 -116.5q166 0 283 116.5t117 280.5z" />
<glyph unicode="&#xf1;" horiz-adv-x="1150" d="M1018 0h-29v545q0 164 -116.5 280.5t-282.5 116.5q-164 0 -280.5 -116.5t-116.5 -280.5v-545h-29v971h29v-271q49 121 156.5 196t240.5 75q178 0 303 -125t125 -301v-545zM276 1178v14q0 70 50.5 120t119.5 50q59 0 105 -39l86 -78q41 -39 94 -39q59 0 100 42t41 100v14 h29v-14q0 -70 -49 -120t-121 -50q-59 0 -104 39l-86 77q-41 39 -95 39q-57 0 -98 -41t-41 -100v-14h-31z" />
<glyph unicode="&#xf2;" horiz-adv-x="1058" d="M956 545v-119q0 -176 -124.5 -301t-303.5 -125q-176 0 -301 125t-125 301v119q0 176 125 301t301 125q178 0 303 -125t125 -301zM928 426v119q0 164 -117 280.5t-283 116.5q-164 0 -280.5 -116.5t-116.5 -280.5v-119q0 -164 117 -280.5t280 -116.5q166 0 283 116.5 t117 280.5zM668 1206l-15 -24l-227 133l14 24z" />
<glyph unicode="&#xf3;" horiz-adv-x="1058" d="M956 545v-119q0 -176 -124.5 -301t-303.5 -125q-176 0 -301 125t-125 301v119q0 176 125 301t301 125q178 0 303 -125t125 -301zM928 426v119q0 164 -117 280.5t-283 116.5q-164 0 -280.5 -116.5t-116.5 -280.5v-119q0 -164 117 -280.5t280 -116.5q166 0 283 116.5 t117 280.5zM420 1182l-14 24l227 133l14 -24z" />
<glyph unicode="&#xf4;" horiz-adv-x="1058" d="M956 545v-119q0 -176 -124.5 -301t-303.5 -125q-176 0 -301 125t-125 301v119q0 176 125 301t301 125q178 0 303 -125t125 -301zM928 426v119q0 164 -117 280.5t-283 116.5q-164 0 -280.5 -116.5t-116.5 -280.5v-119q0 -164 117 -280.5t280 -116.5q166 0 283 116.5 t117 280.5zM303 1178l-14 24l227 133h25l227 -133l-14 -24l-226 131z" />
<glyph unicode="&#xf5;" horiz-adv-x="1058" d="M956 545v-119q0 -176 -124.5 -301t-303.5 -125q-176 0 -301 125t-125 301v119q0 176 125 301t301 125q178 0 303 -125t125 -301zM928 426v119q0 164 -117 280.5t-283 116.5q-164 0 -280.5 -116.5t-116.5 -280.5v-119q0 -164 117 -280.5t280 -116.5q166 0 283 116.5 t117 280.5zM217 1178v14q0 70 49 120t121 50q59 0 105 -39l86 -78q41 -39 94 -39q57 0 99 42t42 100v14h29v-14q0 -70 -50.5 -120t-119.5 -50q-59 0 -105 39l-86 77q-41 39 -94 39q-57 0 -98 -41t-41 -100v-14h-31z" />
<glyph unicode="&#xf6;" horiz-adv-x="1058" d="M682 1178h-29v264h29v-264zM408 1178h-31v264h31v-264zM956 545v-119q0 -176 -124.5 -301t-303.5 -125q-176 0 -301 125t-125 301v119q0 176 125 301t301 125q178 0 303 -125t125 -301zM928 426v119q0 164 -117 280.5t-283 116.5q-164 0 -280.5 -116.5t-116.5 -280.5 v-119q0 -164 117 -280.5t280 -116.5q166 0 283 116.5t117 280.5z" />
<glyph unicode="&#xf7;" horiz-adv-x="1093" d="M559 709h-29v264h29v-264zM1032 473h-971v29h971v-29zM559 2h-29v264h29v-264z" />
<glyph unicode="&#xf8;" horiz-adv-x="1058" d="M956 545v-119q0 -176 -124.5 -301t-303.5 -125q-137 0 -252 82l-55 -82h-35l68 100q-152 131 -152 326v119q0 176 125 301t301 125q139 0 252 -80l54 80h36l-67 -99q153 -126 153 -327zM928 426v119q0 182 -142 303l-493 -742q109 -78 235 -77q166 0 283 116.5t117 280.5 zM764 866q-104 76 -236 76q-164 0 -280.5 -116.5t-116.5 -280.5v-119q0 -178 139 -301z" />
<glyph unicode="&#xf9;" horiz-adv-x="1150" d="M987 0h-29v270q-49 -121 -156.5 -195.5t-242.5 -74.5q-176 0 -301 125t-125 301v545h29v-545q0 -164 116.5 -280.5t280.5 -116.5q166 0 282.5 116.5t116.5 280.5v545h29v-971zM688 1206l-14 -24l-228 133l15 24z" />
<glyph unicode="&#xfa;" horiz-adv-x="1150" d="M987 0h-29v270q-49 -121 -156.5 -195.5t-242.5 -74.5q-176 0 -301 125t-125 301v545h29v-545q0 -164 116.5 -280.5t280.5 -116.5q166 0 282.5 116.5t116.5 280.5v545h29v-971zM440 1182l-14 24l227 133l15 -24z" />
<glyph unicode="&#xfb;" horiz-adv-x="1150" d="M987 0h-29v270q-49 -121 -156.5 -195.5t-242.5 -74.5q-176 0 -301 125t-125 301v545h29v-545q0 -164 116.5 -280.5t280.5 -116.5q166 0 282.5 116.5t116.5 280.5v545h29v-971zM336 1178l-14 24l227 133h24l228 -133l-15 -24l-225 131z" />
<glyph unicode="&#xfc;" horiz-adv-x="1150" d="M713 1178h-29v264h29v-264zM438 1178h-30v264h30v-264zM987 0h-29v270q-49 -121 -156.5 -195.5t-242.5 -74.5q-176 0 -301 125t-125 301v545h29v-545q0 -164 116.5 -280.5t280.5 -116.5q166 0 282.5 116.5t116.5 280.5v545h29v-971z" />
<glyph unicode="&#xfd;" horiz-adv-x="888" d="M879 971l-633 -1442h-31l209 477l-424 965h33l407 -928l408 928h31zM317 1182l-14 24l227 133l15 -24z" />
<glyph unicode="&#xfe;" horiz-adv-x="1130" d="M1028 545v-117q0 -176 -125 -302t-303 -126q-133 0 -240.5 76t-156.5 196v-743h-29v1915h29v-742q49 121 156.5 196t240.5 75q178 0 303 -126t125 -302zM999 428v117q0 166 -116.5 281.5t-282.5 115.5q-164 0 -280.5 -115.5t-116.5 -281.5v-117q0 -164 116.5 -280.5 t280.5 -116.5q166 0 282.5 116.5t116.5 280.5z" />
<glyph unicode="&#xff;" horiz-adv-x="899" d="M600 1178h-29v264h29v-264zM326 1178h-31v264h31v-264zM889 971l-633 -1442h-31l209 477l-424 965h33l408 -928l407 928h31z" />
<glyph unicode="&#x152;" horiz-adv-x="2189" d="M2046 0h-971v319q-51 -141 -176 -230t-281 -89q-201 0 -343 143.5t-142 343.5v471q0 201 142.5 343.5t342.5 142.5q156 0 281 -89t176 -231v320h971v-31h-942v-676h942v-30h-942v-676h942v-31zM1075 487v471q0 188 -134 321.5t-322.5 133.5t-322.5 -133t-134 -322v-471 q0 -188 134 -322t322.5 -134t322.5 134t134 322z" />
<glyph unicode="&#x153;" horiz-adv-x="1882" d="M1780 471h-824v-43q0 -164 117 -280.5t281 -116.5q117 0 213 62.5t145 164.5l27 -12q-51 -111 -155.5 -178.5t-229.5 -67.5q-145 0 -260 89t-152 226q-37 -137 -151.5 -226t-262.5 -89q-176 0 -301 126t-125 302v117q0 176 125 302t301 126q147 0 262 -89t152 -227 q37 137 151.5 226.5t260.5 89.5q176 0 301 -126t125 -302v-74zM1751 545q0 166 -116.5 281.5t-280.5 115.5t-281 -115.5t-117 -281.5v-43h795v43zM928 428v117q0 166 -117 281.5t-283 115.5q-164 0 -280.5 -115.5t-116.5 -281.5v-117q0 -164 117 -280.5t280 -116.5 q166 0 283 116.5t117 280.5z" />
<glyph unicode="&#x178;" horiz-adv-x="1019" d="M655 1575l-28 -2v266h28v-264zM381 1573h-29v266h29v-266zM1010 1444l-486 -727v-717h-28v717l-486 727h35l465 -694l465 694h35z" />
<glyph unicode="&#x2c6;" horiz-adv-x="581" d="M66 1178l-15 24l228 133h24l227 -133l-14 -24l-225 131z" />
<glyph unicode="&#x2dc;" horiz-adv-x="788" d="M82 1178v14q0 70 49 120t121 50q59 0 104 -39l86 -78q41 -39 95 -39q57 0 99 42t42 100v14h29v-14q0 -70 -50.5 -120t-119.5 -50q-59 0 -105 39l-86 77q-41 39 -94 39q-57 0 -98 -41t-41 -100v-14h-31z" />
<glyph unicode="&#x2000;" horiz-adv-x="946" />
<glyph unicode="&#x2001;" horiz-adv-x="1892" />
<glyph unicode="&#x2002;" horiz-adv-x="946" />
<glyph unicode="&#x2003;" horiz-adv-x="1892" />
<glyph unicode="&#x2004;" horiz-adv-x="630" />
<glyph unicode="&#x2005;" horiz-adv-x="473" />
<glyph unicode="&#x2006;" horiz-adv-x="315" />
<glyph unicode="&#x2007;" horiz-adv-x="315" />
<glyph unicode="&#x2008;" horiz-adv-x="235" />
<glyph unicode="&#x2009;" horiz-adv-x="376" />
<glyph unicode="&#x200a;" horiz-adv-x="104" />
<glyph unicode="&#x2010;" horiz-adv-x="710" d="M598 475h-485v29h485v-29z" />
<glyph unicode="&#x2011;" horiz-adv-x="710" d="M598 475h-485v29h485v-29z" />
<glyph unicode="&#x2012;" horiz-adv-x="710" d="M598 475h-485v29h485v-29z" />
<glyph unicode="&#x2013;" horiz-adv-x="1079" d="M967 475h-854v29h854v-29z" />
<glyph unicode="&#x2014;" horiz-adv-x="2138" d="M2025 475h-1912v29h1912v-29z" />
<glyph unicode="&#x2018;" horiz-adv-x="366" d="M254 1407q-51 -29 -82 -80t-31 -113v-258h-28v258q0 74 38.5 135.5t102.5 92.5v-35z" />
<glyph unicode="&#x2019;" horiz-adv-x="366" d="M254 1442v-260q0 -74 -39 -134.5t-102 -91.5v33q113 66 112 193v260h29z" />
<glyph unicode="&#x201a;" horiz-adv-x="407" d="M274 266v-260q0 -74 -38.5 -134t-102.5 -91v33q113 66 113 192v260h28z" />
<glyph unicode="&#x201c;" horiz-adv-x="567" d="M434 1407q-51 -29 -81.5 -80t-30.5 -113v-239h-31v239q0 74 40 135.5t103 92.5v-35zM274 1407q-51 -29 -81.5 -80t-30.5 -113v-239h-29v239q0 74 39 135.5t102 92.5v-35z" />
<glyph unicode="&#x201d;" horiz-adv-x="567" d="M133 975v35q51 29 82 80t31 112v240h30v-240q0 -74 -40 -135t-103 -92zM293 975v35q51 29 82 80t31 112v240h28v-240q0 -74 -39 -135t-102 -92z" />
<glyph unicode="&#x201e;" horiz-adv-x="567" d="M133 -201v35q51 29 82 80t31 113v239h30v-239q0 -74 -40 -135.5t-103 -92.5zM293 -201v35q51 29 82 80t31 113v239h28v-239q0 -74 -39 -135.5t-102 -92.5z" />
<glyph unicode="&#x2022;" horiz-adv-x="862" d="M780 631v-17q0 -141 -100 -240.5t-242 -99.5h-14q-141 0 -241.5 99.5t-100.5 240.5v17q0 141 100.5 241.5t241.5 100.5h14q141 0 241.5 -100.5t100.5 -241.5z" />
<glyph unicode="&#x2026;" horiz-adv-x="616" d="M483 0h-28v264h28v-264zM322 0h-31v264h31v-264zM162 0h-29v264h29v-264z" />
<glyph unicode="&#x202f;" horiz-adv-x="376" />
<glyph unicode="&#x2039;" horiz-adv-x="604" d="M543 0h-39l-422 477v21l418 477h39l-426 -488z" />
<glyph unicode="&#x203a;" horiz-adv-x="604" d="M522 477l-422 -477h-39l431 487l-426 488h38l418 -477v-21z" />
<glyph unicode="&#x205f;" horiz-adv-x="473" />
<glyph unicode="&#x20ac;" horiz-adv-x="1185" d="M1145 1198l-27 -14q-59 104 -164.5 166.5t-230.5 62.5q-184 0 -317.5 -129t-139.5 -313h588v-29h-588v-438h588v-29h-588q4 -186 137.5 -316t319.5 -130q125 0 230.5 62.5t164.5 166.5l27 -14q-63 -111 -176 -177.5t-246 -66.5q-199 0 -340 138t-145 337h-238v29h238v438 h-238v29h238q6 197 147 334t338 137q133 0 246 -66.5t176 -177.5z" />
<glyph unicode="&#x2122;" horiz-adv-x="931" d="M801 971h-10v444l-197 -444h-8l-195 444v-444h-10v471h8l201 -457l201 457h10v-471zM369 1432h-154v-461h-10v461h-154v10h318v-10z" />
<glyph unicode="&#xe000;" horiz-adv-x="970" d="M0 970h970v-970h-970v970z" />
<glyph unicode="&#xfb01;" horiz-adv-x="1050" d="M877 0h-31v942h-531v-942h-30v942h-275v29h275v221q0 104 73.5 177t176.5 73h55v-29h-55q-90 0 -155 -64.5t-65 -156.5v-221h562v-971zM877 1178h-31v264h31v-264z" />
<glyph unicode="&#xfb02;" horiz-adv-x="1050" d="M590 942h-275v-942h-30v942h-275v29h275v221q0 104 73.5 177t176.5 73h342v-1442h-31v1413h-311q-90 0 -155 -64.5t-65 -156.5v-221h275v-29z" />
<glyph unicode="&#xfb03;" horiz-adv-x="1536" d="M1373 1178h-29v264h29v-264zM1373 0h-29v971h29v-971zM1159 942h-274v-942h-31v942h-274v29h274v221q0 104 74 177t176 73h55v-29h-55q-90 0 -154.5 -64.5t-64.5 -156.5v-221h274v-29zM569 942h-274v-942h-31v942h-274v29h274v221q0 104 74 177t176 73h55v-29h-55 q-90 0 -154.5 -64.5t-64.5 -156.5v-221h274v-29z" />
<glyph unicode="&#xfb04;" horiz-adv-x="1556" d="M1383 0h-29v1442h29v-1442zM1159 942h-274v-942h-31v942h-274v29h274v221q0 104 74 177t176 73h55v-29h-55q-90 0 -154.5 -64.5t-64.5 -156.5v-221h274v-29zM569 942h-274v-942h-31v942h-274v29h274v221q0 104 74 177t176 73h55v-29h-55q-90 0 -154.5 -64.5t-64.5 -156.5 v-221h274v-29z" />
<glyph horiz-adv-x="512" />
</font>
</defs>
</svg>
